<svg xmlns="http://www.w3.org/2000/svg" viewBox="0 0 24 24" fill="none" stroke="#000000" stroke-width="2" stroke-linecap="round" stroke-linejoin="round">
  <path d="M12 2C6.48 2 2 6.48 2 12s4.48 10 10 10 10-4.48 10-10S17.52 2 12 2zm4.9 13.13c-.2.3-.63.4-.93.2-2.55-1.55-5.77-1.9-9.56-.52-.36.11-.71-.12-.82-.48-.11-.36.12-.71.48-.82 4.2-1.27 7.79-.81 10.69.6.31.19.41.63.22.93zm1-2.58c-.26.35-.82.48-1.16.26-2.91-1.8-7.36-2.32-10.81-1.27-.44.13-.91-.12-1.04-.56-.13-.44.12-.91.56-1.04 3.96-1.2 8.84-.62 12.2 1.44.35.26.48.82.25 1.17zm.09-2.68C14.88 7.79 9.56 7.61 6.56 8.59c-.54.15-1.1-.14-1.25-.68-.15-.54.14-1.1.68-1.25 3.55-1.08 9.4-.87 13.12 1.46.49.29.65.91.36 1.4-.29.49-.91.65-1.4.36z"/>
</svg> 